<?xml version="1.0" encoding="utf-8"?>
<!-- Generator: Adobe Illustrator 21.0.2, SVG Export Plug-In . SVG Version: 6.00 Build 0)  -->
<svg version="1.0" id="Layer_1" xmlns="http://www.w3.org/2000/svg" xmlns:xlink="http://www.w3.org/1999/xlink" x="0px" y="0px"
	 viewBox="0 0 10026.9 2075.6" style="enable-background:new 0 0 10026.9 2075.6;" xml:space="preserve">
<style type="text/css">
	.st0{fill:#333E48;}
</style>
<g>
	<rect y="2043.7" class="st0" width="2192.4" height="32"/>
	<path class="st0" d="M908.1,460.3c-17.9-127.2-139.7-223.9-279.4-223.9c-252.5,0-347.5,214.9-347.5,438.8
		c0,213.1,94.9,428.1,347.5,428.1c171.9,0,268.7-118.2,290.2-286.6H1191c-28.7,318.8-248.9,523-562.4,523
		C232.8,1339.7,0,1044.2,0,675.2C0,295.5,232.8,0,628.7,0c281.2,0,517.6,164.8,551.6,460.3H908.1z"/>
	<path class="st0" d="M1712.4,358.2c291.9,0,480,193.4,480,489c0,293.7-188.1,487.2-480,487.2c-290.2,0-478.2-193.4-478.2-487.2
		C1234.2,551.6,1422.3,358.2,1712.4,358.2z M1712.4,1142.7c173.7,0,225.7-148.7,225.7-295.5c0-148.7-51.9-297.3-225.7-297.3
		c-171.9,0-223.9,148.7-223.9,297.3C1488.6,994,1540.5,1142.7,1712.4,1142.7z"/>
	<path class="st0" d="M2238.6,383.3h241.8v128.9h5.4c64.5-103.9,175.5-154,283-154c270.4,0,338.5,152.2,338.5,381.5v569.6h-254.3
		v-523c0-152.2-44.8-227.5-163-227.5c-137.9,0-197,77-197,265.1v485.4h-254.3V383.3z"/>
	<path class="st0" d="M3526.9,383.3h186.3v170.1h-186.3V1012c0,86,21.5,107.5,107.5,107.5c26.9,0,51.9-1.8,78.8-7.2v198.8
		c-43,7.1-98.5,8.9-148.7,8.9c-155.8,0-291.9-35.8-291.9-220.3V553.4h-154V383.3h154V105.7h254.3V383.3z"/>
	<path class="st0" d="M4050.8,240h-254.3V30.5h254.3V240z M3796.4,383.3h254.3v926h-254.3V383.3z"/>
	<path class="st0" d="M4357.7,596.2c22.9-70.7,16.6-89.4-14.6-89.4c-39.5,0-114.3,70.7-166.3,160.1H4104
		C4193.4,492.2,4326.5,380,4445,380c79,0,128.9,49.9,128.9,133.1c0,95.6-43.7,222.5-101.9,401.2l4.1,4.2
		C4652.9,602.4,4869.1,380,5077,380c108.1,0,183,66.5,183,168.4c0,41.6-2.1,64.5-31.2,143.5l-149.7,397.1
		c-22.9,62.4-6.2,106,22.9,106c39.5,0,91.5-43.7,151.8-131h72.8c-72.8,147.6-224.5,270.3-361.7,270.3
		c-85.2,0-139.3-45.7-139.3-114.3c0-27,4.2-54.1,14.6-83.2l149.7-417.9c14.6-39.5,41.6-124.7,41.6-153.8c0-33.3-27-58.2-64.5-58.2
		c-60.3,0-141.4,56.1-239.1,168.4c-120.6,137.2-259.9,355.5-313.9,490.6l-56.1,143.5h-220.4L4357.7,596.2z"/>
	<path class="st0" d="M7987,617c6.3-20.8,10.4-41.6,10.4-58.2c0-22.9-14.6-39.5-35.3-39.5c-49.9,0-126.8,62.4-174.6,143.5h-74.8
		C7820.7,481.8,7962.1,380,8105.5,380c72.8,0,120.6,47.8,120.6,122.7c0,43.6-31.2,155.9-93.6,343l4.2,4.2
		C8307.2,583.7,8498.4,380,8727.1,380c112.3,0,189.2,72.8,189.2,180.9c0,43.7-14.5,137.2-66.5,282.7l4.2,4.2
		C9051.4,556.7,9211.5,380,9454.8,380c120.6,0,193.3,58.2,193.3,155.9c0,45.7-12.5,93.5-35.3,160.1l-155.9,436.6
		c-18.7,52,0,81.1,29.1,81.1c45.7,0,106-52,176.7-149.7h81.1c-103.9,174.6-237,270.3-378.4,270.3c-83.2,0-139.3-47.8-139.3-118.5
		c0-33.3,12.5-91.5,33.3-151.8l135.1-384.6c14.6-39.5,22.9-74.8,22.9-95.6c0-43.6-37.4-76.9-85.2-76.9c-83.2,0-185,74.8-316,228.7
		c-126.8,149.7-232.8,328.5-272.3,461.5l-33.3,112.3h-220.4l183-592.5c14.6-43.6,22.9-91.5,22.9-126.8c0-52-31.2-83.2-76.9-83.2
		c-54,0-128.9,35.3-253.6,160.1c-205.8,205.8-316,463.6-343,553l-27,89.4H7775L7987,617z"/>
	<g>
		<path class="st0" d="M9827.7,405.6c-109.9,0-199.2-89.2-199.2-199.2c0-109.9,89.2-199.2,199.2-199.2
			c109.9,0,199.2,89.2,199.2,199.2C10026.9,316.4,9937.7,405.6,9827.7,405.6z M9827.1,27.4c-99,0-179,80-179,179s80,179,179,179
			c99,0,179-80,179-179S9926.1,27.4,9827.1,27.4z M9744.2,133.9c0-32.2-2.9-36.3-25.9-38v-9.8h105.3c57.6,0,90.4,23,90.4,63.3
			c0,29.9-20.1,50.1-58.1,60.4l51.2,78.9c12.1,19,19,24.2,32.3,25.9v9.2h-57.6l-73.7-110h-17.8v72.5c0,20.7,9.2,28.2,33.4,28.2v9.2
			h-108.8v-9.2c24.8-0.6,29.4-5.8,29.4-38.6V133.9z M9804.1,201.2c35.7,0,58.7-20.2,58.7-50.7c0-31.7-21.3-51.8-54.7-51.8
			c-6.3,0-10.4,0.6-17.8,2.9v99L9804.1,201.2z"/>
	</g>
	<path class="st0" d="M6264.6,1095.1c-10.4,33.3-18.7,58.2-18.7,76.9c0,20.8,18.7,35.3,33.3,35.3c39.5,0,112.3-54,178.8-158h72.8
		c-114.3,214.1-266.1,284.8-384.6,284.8c-112.3,0-122.7-68.6-122.7-108.1c0-43.7,14.6-103.9,31.2-155.9l58.2-183l-4.2-4.2
		c-247.4,399.2-440.8,451.2-523.9,451.2c-76.9,0-174.6-41.6-174.6-160.1c0-52,22.9-120.6,33.3-158l114.3-361.7
		c20.8-62.4,20.8-68.6,20.8-85.2c0-25-20.8-45.7-52-45.7c-58.2,0-101.9,60.3-145.5,131h-76.9C5441.3,407,5588.9,380,5655.5,380
		c97.7,0,153.8,62.4,153.8,128.9c0,39.5-10.4,68.6-35.3,145.5l-137.2,438.7c-10.4,31.2-14.5,52-14.5,70.7c0,18.7,10.4,52,54,52
		c133.1,0,313.9-259.9,338.9-295.2C6117,775,6187.7,610.7,6264.6,404.9h216.2L6264.6,1095.1z"/>
	<path class="st0" d="M7468.8,1095.1c-10.4,33.3-18.7,58.2-18.7,76.9c0,20.8,18.7,35.3,33.3,35.3c39.5,0,112.3-54,178.8-158h72.8
		c-114.3,214.1-266.1,284.8-384.6,284.8c-112.3,0-122.7-68.6-122.7-108.1c0-43.7,14.6-103.9,31.2-155.9l58.2-183l-4.2-4.2
		c-247.4,399.2-440.8,451.2-523.9,451.2c-76.9,0-174.6-41.6-174.6-160.1c0-52,22.9-120.6,33.3-158L6762,654.4
		c20.8-62.4,20.8-68.6,20.8-85.2c0-25-20.8-45.7-52-45.7c-58.2,0-101.9,60.3-145.5,131h-76.9C6645.6,407,6793.2,380,6859.7,380
		c97.7,0,153.8,62.4,153.8,128.9c0,39.5-10.4,68.6-35.3,145.5L6841,1093.1c-10.4,31.2-14.5,52-14.5,70.7c0,18.7,10.4,52,54.1,52
		c133.1,0,313.9-259.9,338.9-295.2c101.9-145.5,172.6-309.8,249.5-515.6h216.2L7468.8,1095.1z"/>
</g>
</svg>
