<?xml version="1.0" standalone="no"?>
<!DOCTYPE svg PUBLIC "-//W3C//DTD SVG 20010904//EN"
 "http://www.w3.org/TR/2001/REC-SVG-20010904/DTD/svg10.dtd">
<svg version="1.0" xmlns="http://www.w3.org/2000/svg"
 width="1151.000000pt" height="1151.000000pt" viewBox="0 0 1151.000000 1151.000000"
 preserveAspectRatio="xMidYMid meet">
<metadata>
Created by potrace 1.14, written by Peter Selinger 2001-2017
</metadata>
<g transform="translate(0.000000,1151.000000) scale(0.100000,-0.100000)"
fill="#000000" stroke="none">
<path d="M3323 11498 c-40 -6 -73 -14 -73 -18 0 -5 -19 -11 -42 -15 -71 -11
-198 -48 -198 -57 0 -4 -6 -8 -12 -8 -17 0 -152 -51 -158 -60 -3 -4 -32 -20
-65 -36 -32 -16 -70 -39 -84 -51 -13 -13 -30 -23 -37 -23 -7 0 -17 -6 -21 -14
-4 -8 -25 -24 -46 -36 -21 -12 -42 -31 -48 -41 -5 -11 -15 -19 -22 -19 -7 0
-25 -13 -42 -29 -71 -68 -184 -190 -201 -217 -10 -16 -27 -35 -36 -42 -10 -7
-18 -19 -18 -26 0 -7 -10 -24 -23 -37 -13 -13 -34 -46 -47 -74 -13 -27 -26
-52 -30 -55 -11 -9 -46 -84 -54 -112 -3 -16 -10 -28 -15 -28 -5 0 -19 -33 -32
-72 -12 -40 -25 -75 -28 -78 -16 -12 -61 -248 -61 -317 0 -24 -4 -43 -10 -43
-7 0 -10 -1012 -10 -3015 0 -1699 4 -3015 9 -3015 4 0 11 -17 14 -37 7 -55 36
-151 50 -166 7 -7 21 -30 32 -52 11 -22 31 -53 45 -69 61 -69 129 -136 139
-136 5 0 16 -8 23 -17 13 -18 53 -39 116 -63 17 -7 32 -16 32 -20 0 -4 35 -16
78 -26 75 -18 164 -19 3067 -19 2903 0 2992 1 3068 19 42 10 77 23 77 27 0 5
5 9 11 9 16 0 120 53 147 75 96 81 187 186 208 242 9 24 20 43 25 43 10 0 35
80 48 154 6 33 11 133 11 223 l0 163 639 0 c550 0 650 -2 717 -16 44 -9 81
-19 84 -23 3 -3 31 -17 63 -30 33 -13 70 -34 84 -47 14 -13 30 -24 36 -24 17
0 158 -152 179 -194 11 -22 26 -46 33 -53 13 -13 39 -91 52 -155 3 -18 11 -36
17 -40 15 -10 13 -261 -2 -266 -7 -2 -12 -12 -12 -22 0 -28 -39 -148 -53 -162
-7 -7 -23 -35 -37 -61 -14 -27 -33 -53 -42 -58 -10 -5 -18 -16 -18 -23 0 -15
-71 -81 -117 -109 -18 -10 -33 -22 -33 -27 0 -8 -111 -60 -129 -60 -6 0 -11
-4 -11 -8 0 -5 -33 -17 -72 -28 -71 -19 -180 -19 -4489 -24 -4188 -5 -4416 -6
-4433 -22 -10 -10 -22 -18 -27 -18 -8 0 -1453 -1441 -1494 -1491 -45 -54 -45
-53 -45 -629 0 -321 4 -559 9 -574 11 -27 36 -60 65 -85 10 -9 24 -22 31 -28
8 -7 25 -17 40 -23 35 -13 11183 -14 11219 -1 27 11 60 36 85 65 9 10 22 24
28 31 31 32 33 77 33 615 0 576 0 575 -45 629 -11 14 -249 253 -529 533 -279
280 -506 512 -503 514 3 3 35 10 73 15 89 12 197 38 204 47 3 5 31 16 63 26
32 10 63 23 70 30 7 6 38 24 70 40 31 15 57 32 57 36 0 4 15 15 33 24 52 27
66 38 131 104 120 124 176 190 176 208 0 6 10 22 23 35 13 13 34 50 47 82 13
31 27 57 31 57 7 0 42 108 54 168 4 17 10 32 14 32 14 0 31 163 31 302 0 138
-16 288 -30 288 -4 0 -11 17 -15 38 -9 47 -47 165 -55 172 -4 3 -20 33 -36 67
-16 35 -33 63 -37 63 -4 0 -13 13 -20 29 -31 73 -237 285 -319 327 -15 8 -28
18 -28 23 0 5 -29 22 -65 37 -36 16 -65 32 -65 36 0 4 -39 19 -87 35 -49 15
-90 31 -93 35 -3 3 -43 14 -90 24 -76 16 -157 19 -772 22 l-688 3 -3 2647 -3
2647 -22 104 c-11 57 -25 107 -30 110 -4 3 -18 42 -31 86 -13 44 -26 82 -30
85 -4 3 -20 38 -35 78 -16 39 -32 72 -36 72 -4 0 -20 26 -36 58 -16 31 -37 66
-47 77 -11 11 -22 27 -25 37 -10 24 -59 83 -124 150 -32 32 -58 63 -58 68 0 6
-4 10 -9 10 -5 0 -30 23 -57 50 -27 28 -53 50 -59 50 -6 0 -16 9 -22 19 -7 11
-28 27 -48 37 -19 9 -35 20 -35 25 0 5 -18 18 -39 29 -22 10 -41 23 -43 27 -1
5 -30 21 -63 37 -33 16 -62 32 -65 35 -6 8 -70 35 -125 53 -22 7 -45 18 -51
24 -7 6 -58 21 -115 34 -57 12 -106 26 -109 30 -19 27 -259 30 -2297 29 -1276
-1 -2126 -5 -2170 -11z m4285 -485 c2 -7 16 -13 30 -13 37 0 223 -46 231 -57
3 -5 39 -22 79 -37 39 -16 72 -33 72 -37 0 -4 21 -17 48 -30 26 -12 56 -32 68
-43 12 -12 41 -37 65 -56 39 -31 85 -77 164 -164 14 -15 37 -50 52 -77 14 -27
28 -49 32 -49 4 0 18 -22 31 -50 13 -27 26 -50 30 -50 6 0 43 -107 56 -162 3
-16 9 -28 13 -28 13 0 31 -116 42 -265 6 -99 9 -1131 7 -3010 -3 -2666 -4
-2863 -20 -2897 -9 -21 -22 -38 -27 -38 -6 0 -11 -6 -11 -14 0 -8 -12 -24 -27
-35 -16 -12 -33 -25 -39 -30 -6 -5 -29 -14 -50 -20 -49 -14 -5809 -15 -5868
-1 -21 4 -42 12 -45 17 -3 4 -17 14 -31 21 -39 20 -53 34 -75 72 -20 35 -20
53 -20 3045 0 2899 1 3013 19 3095 10 47 21 87 25 90 4 3 17 38 31 78 13 39
27 72 31 72 3 0 17 25 29 55 12 31 28 59 34 63 6 4 20 24 31 45 11 21 34 53
50 71 17 19 50 57 74 85 25 28 50 51 57 51 7 0 22 14 34 30 12 17 28 30 35 30
8 0 20 8 27 18 7 10 38 32 68 48 30 16 59 35 65 41 5 7 37 22 70 34 33 11 62
24 65 29 7 10 143 47 208 56 29 3 52 10 52 15 0 4 24 10 53 12 28 2 970 3
2091 3 1622 -1 2040 -4 2044 -13z m2138 -8645 c20 -18 66 -64 103 -101 36 -38
97 -99 134 -135 84 -82 77 -75 159 -159 36 -37 97 -98 135 -135 37 -36 98 -97
135 -135 37 -37 108 -108 157 -157 50 -49 91 -93 91 -98 0 -4 -2207 -8 -4905
-8 -2698 0 -4905 4 -4905 8 0 5 41 49 91 98 49 49 120 120 157 157 37 38 98
99 135 135 38 37 99 98 135 136 37 37 82 82 101 100 18 17 63 62 100 99 36 38
97 99 135 135 37 37 73 72 80 79 8 10 882 12 3969 13 l3958 0 35 -32z m1284
-1653 l0 -235 -5275 0 -5275 0 0 235 0 235 5275 0 5275 0 0 -235z"/>
<path d="M3453 10548 c-35 -5 -63 -13 -63 -18 0 -5 -15 -12 -32 -16 -34 -7
-99 -35 -108 -45 -3 -4 -24 -16 -48 -28 -24 -12 -45 -28 -49 -36 -3 -8 -11
-15 -18 -15 -16 0 -125 -120 -125 -137 0 -7 -5 -13 -10 -13 -6 0 -23 -26 -38
-57 -15 -32 -30 -60 -33 -63 -4 -3 -15 -30 -25 -60 -18 -53 -19 -126 -22
-1630 -3 -1452 -2 -1581 14 -1658 9 -46 23 -90 30 -97 8 -7 14 -17 14 -22 1
-15 45 -97 65 -122 11 -13 35 -40 53 -60 17 -19 32 -38 32 -41 0 -3 21 -18 45
-35 25 -16 45 -33 45 -37 0 -4 26 -20 58 -34 31 -15 59 -30 62 -34 9 -12 166
-50 208 -50 23 0 42 -4 42 -10 0 -7 663 -10 1970 -10 1307 0 1970 3 1970 10 0
6 17 10 38 10 20 0 55 5 77 10 69 18 120 34 125 40 3 3 32 19 65 35 33 17 68
40 78 53 10 12 23 22 29 22 11 0 98 87 98 98 0 4 10 18 23 32 13 14 36 52 51
85 16 33 32 62 36 65 4 3 16 37 26 75 18 67 19 133 19 1630 0 1473 -1 1564
-18 1638 -10 42 -22 77 -26 77 -4 0 -18 26 -31 58 -13 31 -31 65 -42 75 -10
10 -18 23 -18 29 0 18 -160 168 -196 183 -19 8 -34 18 -34 23 0 5 -35 19 -77
32 -43 14 -80 28 -83 32 -19 25 -214 28 -2125 27 -1215 -1 -2014 -5 -2052 -11z
m4027 -488 c0 -5 7 -10 15 -10 20 0 95 -38 95 -48 0 -4 13 -20 28 -37 16 -16
34 -45 40 -64 16 -45 17 -2957 1 -3013 -5 -21 -14 -38 -19 -38 -6 0 -10 -6
-10 -13 0 -15 -63 -77 -101 -98 -20 -12 -333 -14 -1979 -17 -1999 -3 -2053 -2
-2067 34 -3 8 -10 14 -16 14 -16 0 -57 41 -57 57 0 7 -4 13 -8 13 -5 0 -15 12
-23 28 -12 23 -14 254 -17 1482 -3 1471 -1 1577 32 1598 7 4 24 23 39 44 19
25 42 40 72 49 25 7 45 17 45 21 0 4 884 8 1965 8 1303 0 1965 -3 1965 -10z"/>
<path d="M3500 8516 l0 -694 153 2 c155 3 199 12 211 41 3 9 6 156 6 325 0
308 0 309 -22 324 -12 9 -33 16 -46 16 -19 0 -22 3 -14 13 6 7 13 46 17 87 3
41 7 84 9 95 2 11 7 60 11 109 4 50 9 98 10 109 2 10 7 60 11 111 6 89 5 94
-17 115 -34 32 -81 41 -211 41 l-118 0 0 -694z m215 412 c-9 -229 -12 -289
-16 -292 -12 -11 -83 -35 -90 -30 -5 3 -9 113 -9 245 l0 239 60 0 61 0 -6
-162z m25 -717 c-1 -193 -4 -252 -14 -260 -17 -14 -75 -21 -82 -10 -8 13 -8
495 0 508 4 6 27 11 52 11 l44 0 0 -249z"/>
<path d="M4071 9173 l-37 -38 2 -630 c1 -346 2 -633 3 -636 1 -4 25 -25 54
-47 52 -40 52 -40 137 -38 79 2 89 4 136 36 l51 35 0 650 0 650 -35 28 c-34
26 -40 27 -155 27 l-119 0 -37 -37z m222 -403 c-4 -547 -10 -830 -18 -838 -11
-11 -84 -11 -91 0 -12 19 -7 1160 5 1167 6 4 32 7 58 6 l48 -1 -2 -334z"/>
<path d="M4619 9163 c0 -27 -2 -86 -4 -133 -2 -47 -6 -161 -10 -255 -3 -93 -8
-219 -10 -280 -2 -60 -7 -184 -11 -275 -3 -91 -7 -194 -9 -230 -3 -84 -7 -210
-6 -232 1 -13 10 -17 41 -16 22 0 41 3 41 7 3 11 6 84 13 301 3 118 9 303 12
410 4 107 7 248 8 312 0 65 4 118 9 118 4 0 7 -6 7 -12 1 -30 15 -122 25 -174
2 -6 6 -37 9 -70 4 -32 9 -66 11 -74 2 -8 16 -94 30 -190 14 -96 27 -186 29
-200 3 -14 7 -43 10 -65 6 -44 24 -176 31 -215 2 -14 6 -45 10 -70 11 -79 12
-80 60 -80 75 0 73 -4 75 143 2 135 3 188 14 617 3 135 9 350 12 478 l5 232
-50 0 c-49 0 -51 -1 -52 -27 0 -16 -1 -279 -1 -587 0 -307 -4 -552 -8 -545 -4
8 -15 66 -24 129 -10 63 -22 138 -26 165 -5 28 -12 70 -15 95 -3 25 -8 56 -10
70 -8 47 -17 105 -20 135 -4 32 -12 83 -20 125 -3 14 -7 42 -10 62 -2 21 -6
53 -9 70 -3 18 -8 49 -10 68 -3 19 -12 78 -21 130 -8 52 -15 98 -15 103 0 4
-25 7 -55 7 l-55 0 -1 -47z"/>
<path d="M5539 9208 c-3 -7 -8 -63 -14 -183 -3 -71 -8 -159 -10 -195 -2 -36
-7 -119 -10 -185 -4 -66 -9 -142 -10 -170 -2 -27 -6 -111 -10 -185 -4 -74 -8
-157 -10 -185 -2 -27 -7 -112 -10 -188 l-7 -137 51 3 c28 2 53 6 55 8 2 2 7
47 10 99 4 52 9 109 11 125 4 24 13 137 18 213 1 17 127 86 137 76 5 -5 11
-38 15 -74 3 -36 8 -76 10 -90 2 -14 7 -53 10 -87 4 -35 9 -74 10 -88 2 -14 6
-51 10 -83 11 -101 8 -96 48 -98 35 -2 41 3 39 36 0 3 -3 66 -7 140 -3 74 -8
171 -11 215 -8 156 -14 271 -19 395 -3 69 -7 150 -10 180 -2 30 -7 127 -11
215 -6 141 -10 212 -13 238 -1 6 -269 11 -272 5z m176 -456 c-3 -238 -9 -368
-16 -373 -6 -3 -25 -6 -42 -5 l-32 1 0 350 c-1 193 1 357 3 366 3 15 69 39 85
31 5 -2 6 -169 2 -370z"/>
<path d="M6063 9165 l-33 -44 0 -639 0 -640 90 2 c50 1 95 -1 99 -4 8 -5 22
-40 27 -65 1 -6 11 -44 22 -85 11 -41 22 -87 26 -101 3 -14 14 -36 25 -48 17
-20 26 -22 61 -16 22 4 40 11 40 17 0 5 -23 73 -50 149 -28 77 -48 144 -46
147 2 4 23 7 45 6 l41 -1 0 646 0 646 -34 38 -34 37 -124 0 -123 -1 -32 -44z
m228 -105 c6 -155 2 -1050 -4 -1064 -9 -19 -10 -19 -23 -1 -8 10 -14 27 -14
36 0 24 -15 32 -49 24 -27 -6 -29 -8 -20 -38 5 -18 9 -33 9 -34 0 -5 -35 2
-45 9 -6 4 -10 34 -9 70 2 63 17 899 17 973 0 22 4 43 9 46 4 3 35 5 68 5 57
-1 60 -2 61 -26z"/>
<path d="M6809 9183 c0 -31 2 -166 6 -288 3 -107 16 -562 20 -705 2 -63 4
-151 6 -195 l2 -80 -39 1 c-21 1 -56 2 -76 3 l-38 1 -2 622 -3 623 -35 -1
c-19 -1 -42 -2 -50 -3 -13 -1 -15 -84 -15 -688 l0 -688 154 -1 c154 -1 154 -1
184 26 l31 27 0 684 1 684 -72 3 -73 3 -1 -28z"/>
<path d="M7177 9203 c-3 -5 -8 -71 -12 -148 -4 -77 -8 -165 -10 -195 -2 -30
-6 -111 -10 -180 -3 -69 -8 -150 -10 -180 -2 -30 -7 -111 -10 -180 -4 -69 -8
-154 -10 -190 -2 -36 -7 -114 -10 -175 -3 -60 -7 -122 -9 -137 -4 -31 -6 -30
49 -33 47 -2 62 2 62 18 0 20 14 200 18 232 2 17 6 68 10 114 3 46 8 87 10 91
8 14 127 72 133 65 7 -6 8 -16 17 -100 7 -64 11 -94 20 -165 3 -25 7 -65 10
-90 20 -172 18 -167 61 -167 l35 0 -6 136 c-3 75 -8 168 -10 206 -2 39 -6 126
-9 195 -4 69 -9 166 -11 215 -3 50 -7 133 -10 185 -9 187 -18 366 -20 395 -1
17 -3 45 -4 63 l-1 32 -134 0 c-74 0 -137 -3 -139 -7z m177 -450 c-3 -202 -6
-369 -8 -370 -2 -2 -20 -4 -42 -6 l-39 -2 -2 345 c-1 190 0 355 3 367 4 21 21
29 71 32 l22 1 -5 -367z"/>
<path d="M5920 5750 c0 -5 -8 -10 -19 -10 -10 0 -30 -9 -44 -20 -14 -11 -30
-20 -36 -20 -6 0 -11 -5 -11 -10 0 -6 -10 -25 -22 -41 -20 -27 -23 -43 -23
-132 0 -92 2 -105 25 -137 32 -46 58 -67 98 -80 17 -7 32 -16 32 -21 0 -5 314
-9 790 -9 520 0 790 3 790 10 0 6 7 10 17 10 26 0 103 49 103 66 0 8 7 17 15
20 17 7 45 93 45 139 0 37 -28 135 -38 135 -4 0 -15 13 -24 28 -10 16 -35 37
-58 47 -22 10 -40 22 -40 27 0 4 -360 8 -800 8 -527 0 -800 -3 -800 -10z"/>
<path d="M2785 2149 c-16 -5 -35 -14 -40 -21 -6 -7 -19 -17 -28 -23 -10 -5
-26 -23 -35 -40 -9 -16 -22 -35 -29 -42 -32 -35 -27 -192 8 -221 10 -9 19 -21
19 -27 1 -22 49 -63 96 -81 59 -23 153 -23 205 0 110 47 164 182 124 309 -10
31 -26 64 -37 74 -10 10 -29 27 -41 39 -12 11 -37 26 -56 32 -39 14 -142 14
-186 1z"/>
<path d="M4220 2146 c-47 -18 -100 -69 -122 -118 -28 -63 -25 -171 8 -236 14
-29 32 -52 39 -52 7 0 19 -10 27 -21 21 -32 123 -51 200 -37 53 9 67 17 107
58 76 78 76 78 79 170 3 75 1 88 -17 109 -12 13 -21 29 -21 36 0 18 -71 77
-110 91 -45 17 -145 16 -190 0z"/>
<path d="M5651 2145 c-77 -34 -141 -135 -141 -223 1 -55 17 -115 34 -128 9 -6
16 -15 16 -20 1 -19 47 -60 88 -78 88 -40 224 -18 279 44 12 14 23 30 23 36 0
7 6 14 14 17 15 6 36 80 36 131 0 87 -67 189 -146 222 -43 18 -159 17 -203 -1z"/>
<path d="M7100 2146 c-39 -14 -110 -73 -110 -91 0 -7 -9 -23 -21 -36 -18 -21
-20 -34 -17 -112 1 -48 8 -91 14 -95 6 -4 19 -22 29 -39 11 -18 25 -33 31 -33
6 0 18 -10 26 -21 21 -32 123 -51 199 -37 49 8 67 18 104 52 57 55 75 98 75
185 0 150 -91 242 -239 241 -31 -1 -72 -7 -91 -14z"/>
<path d="M8535 2147 c-30 -12 -61 -35 -95 -70 -10 -10 -26 -43 -35 -74 -40
-128 13 -262 123 -309 53 -23 147 -23 206 0 48 19 95 59 96 83 0 7 7 16 15 20
35 20 44 191 12 225 -7 7 -19 26 -27 41 -8 16 -23 33 -35 39 -11 6 -23 17 -28
24 -18 32 -170 45 -232 21z"/>
</g>
</svg>
